#Comment line ignore any data following # character 
#Hierarchical Translation and Rotation (.htr) file 
[Header]	
#Header keywords are followed by a single value 
FileType HTR		#Single word string
DataType HTRS		#Translation followed by rotation and scale data
FileVersion 1		#integer
NumSegments 84		#integer
NumFrames 2		#integer
DataFrameRate 30		#integer, data frame rate in this file
EulerRotationOrder ZYX
CalibrationUnits mm
RotationUnits Degrees
GlobalAxisofGravity Y
BoneLengthAxis Y
ScaleFactor 1.00
[SegmentNames&Hierarchy]
#CHILD	PARENT
MASTER GLOBAL
root MASTER
chest root
L_mid_tent01 root
R_mid_tent01 root
spine01 root
Bip01_Neck chest
L_humerus chest
R_humerus chest
weapon_bone chest
Bip01_Head Bip01_Neck
eye_left_bone Bip01_Head
eye_right_bone Bip01_Head
L_forearm L_humerus
L_front_hand L_forearm
L_weapon_bone L_forearm
L_front_hand01_01 L_front_hand
L_front_hand02_01 L_front_hand
L_front_hand03_01 L_front_hand
L_front_hand01_02 L_front_hand01_01
L_front_hand02_02 L_front_hand02_01
L_front_hand03_02 L_front_hand03_01
R_forearm R_humerus
R_front_hand R_forearm
R_weapon_bone R_forearm
R_front_hand01_01 R_front_hand
R_front_hand02_01 R_front_hand
R_front_hand03_01 R_front_hand
R_front_hand01_02 R_front_hand01_01
R_front_hand02_02 R_front_hand02_01
R_front_hand03_02 R_front_hand03_01
null_rope01_connect L_mid_tent01
Rope1_Seg01 null_rope01_connect
Rope1_Seg02 Rope1_Seg01
Rope1_Seg03 Rope1_Seg02
Rope1_Seg04 Rope1_Seg03
Rope1_Seg05 Rope1_Seg04
Rope1_Seg06 Rope1_Seg05
Rope1_Seg07 Rope1_Seg06
Rope1_Seg09 Rope1_Seg07
L_mid_hand01 Rope1_Seg09
L_mid_hand02 Rope1_Seg09
L_mid_hand03 Rope1_Seg09
null_rope02_connect R_mid_tent01
Rope2_Seg01 null_rope02_connect
Rope2_Seg02 Rope2_Seg01
Rope2_Seg03 Rope2_Seg02
Rope2_Seg04 Rope2_Seg03
Rope2_Seg05 Rope2_Seg04
Rope2_Seg06 Rope2_Seg05
Rope2_Seg07 Rope2_Seg06
Rope2_Seg09 Rope2_Seg07
R_mid_hand01 Rope2_Seg09
R_mid_hand02 Rope2_Seg09
R_mid_hand03 Rope2_Seg09
spine02 spine01
spine03 spine02
pelvis spine03
null_rope03_connect pelvis
null_rope04_connect pelvis
Rope3_Seg01 null_rope03_connect
Rope3_Seg02 Rope3_Seg01
Rope3_Seg03 Rope3_Seg02
Rope3_Seg04 Rope3_Seg03
Rope3_Seg05 Rope3_Seg04
Rope3_Seg06 Rope3_Seg05
Rope3_Seg07 Rope3_Seg06
Rope3_Seg08 Rope3_Seg07
Rope3_Seg09 Rope3_Seg08
R_rear_hand01 Rope3_Seg09
R_rear_hand02 Rope3_Seg09
R_rear_hand03 Rope3_Seg09
Rope4_Seg01 null_rope04_connect
Rope4_Seg02 Rope4_Seg01
Rope4_Seg03 Rope4_Seg02
Rope4_Seg04 Rope4_Seg03
Rope4_Seg05 Rope4_Seg04
Rope4_Seg06 Rope4_Seg05
Rope4_Seg07 Rope4_Seg06
Rope4_Seg08 Rope4_Seg07
Rope4_Seg09 Rope4_Seg08
L_rear_hand01 Rope4_Seg09
L_rear_hand02 Rope4_Seg09
L_rear_hand03 Rope4_Seg09
[BasePosition]
#SegmentName Tx, Ty, Tz, Rx, Ry, Rz, BoneLength
MASTER 0.000000 0.000000 0.000000 -90.000000 0.000000 0.000000 10.000000 
root 0.000000 0.000000 0.000000 0.000000 0.000000 0.000000 10.000000 
chest 0.000000 0.000000 0.000000 0.000000 0.000000 0.000000 10.000000 
L_mid_tent01 0.000000 0.000000 0.000000 0.000000 0.000000 0.000000 10.000000 
R_mid_tent01 0.000000 0.000000 0.000000 0.000000 0.000000 0.000000 10.000000 
spine01 0.000000 0.000000 0.000000 0.000000 0.000000 0.000000 10.000000 
Bip01_Neck 0.000000 0.000000 0.000000 0.000000 0.000000 0.000000 10.000000 
L_humerus 0.000000 0.000000 0.000000 0.000000 0.000000 0.000000 10.000000 
R_humerus 0.000000 0.000000 0.000000 0.000000 0.000000 0.000000 10.000000 
weapon_bone 0.000000 0.000000 0.000000 0.000000 0.000000 0.000000 10.000000 
Bip01_Head 0.000000 0.000000 0.000000 0.000000 0.000000 0.000000 10.000000 
eye_left_bone 0.000000 0.000000 0.000000 0.000000 0.000000 0.000000 10.000000 
eye_right_bone 0.000000 0.000000 0.000000 0.000000 0.000000 0.000000 10.000000 
L_forearm 0.000000 0.000000 0.000000 0.000000 0.000000 0.000000 10.000000 
L_front_hand 0.000000 0.000000 0.000000 0.000000 0.000000 0.000000 10.000000 
L_weapon_bone 0.000000 0.000000 0.000000 0.000000 0.000000 0.000000 10.000000 
L_front_hand01_01 0.000000 0.000000 0.000000 0.000000 0.000000 0.000000 10.000000 
L_front_hand02_01 0.000000 0.000000 0.000000 0.000000 0.000000 0.000000 10.000000 
L_front_hand03_01 0.000000 0.000000 0.000000 0.000000 0.000000 0.000000 10.000000 
L_front_hand01_02 0.000000 0.000000 0.000000 0.000000 0.000000 0.000000 10.000000 
L_front_hand02_02 0.000000 0.000000 0.000000 0.000000 0.000000 0.000000 10.000000 
L_front_hand03_02 0.000000 0.000000 0.000000 0.000000 0.000000 0.000000 10.000000 
R_forearm 0.000000 0.000000 0.000000 0.000000 0.000000 0.000000 10.000000 
R_front_hand 0.000000 0.000000 0.000000 0.000000 0.000000 0.000000 10.000000 
R_weapon_bone 0.000000 0.000000 0.000000 0.000000 0.000000 0.000000 10.000000 
R_front_hand01_01 0.000000 0.000000 0.000000 0.000000 0.000000 0.000000 10.000000 
R_front_hand02_01 0.000000 0.000000 0.000000 0.000000 0.000000 0.000000 10.000000 
R_front_hand03_01 0.000000 0.000000 0.000000 0.000000 0.000000 0.000000 10.000000 
R_front_hand01_02 0.000000 0.000000 0.000000 0.000000 0.000000 0.000000 10.000000 
R_front_hand02_02 0.000000 0.000000 0.000000 0.000000 0.000000 0.000000 10.000000 
R_front_hand03_02 0.000000 0.000000 0.000000 0.000000 0.000000 0.000000 10.000000 
null_rope01_connect 0.000000 0.000000 0.000000 0.000000 0.000000 0.000000 10.000000 
Rope1_Seg01 0.000000 0.000000 0.000000 0.000000 0.000000 0.000000 10.000000 
Rope1_Seg02 0.000000 0.000000 0.000000 0.000000 0.000000 0.000000 10.000000 
Rope1_Seg03 0.000000 0.000000 0.000000 0.000000 0.000000 0.000000 10.000000 
Rope1_Seg04 0.000000 0.000000 0.000000 0.000000 0.000000 0.000000 10.000000 
Rope1_Seg05 0.000000 0.000000 0.000000 0.000000 0.000000 0.000000 10.000000 
Rope1_Seg06 0.000000 0.000000 0.000000 0.000000 0.000000 0.000000 10.000000 
Rope1_Seg07 0.000000 0.000000 0.000000 0.000000 0.000000 0.000000 10.000000 
Rope1_Seg09 0.000000 0.000000 0.000000 0.000000 0.000000 0.000000 10.000000 
L_mid_hand01 0.000000 0.000000 0.000000 0.000000 0.000000 0.000000 10.000000 
L_mid_hand02 0.000000 0.000000 0.000000 0.000000 0.000000 0.000000 10.000000 
L_mid_hand03 0.000000 0.000000 0.000000 0.000000 0.000000 0.000000 10.000000 
null_rope02_connect 0.000000 0.000000 0.000000 0.000000 0.000000 0.000000 10.000000 
Rope2_Seg01 0.000000 0.000000 0.000000 0.000000 0.000000 0.000000 10.000000 
Rope2_Seg02 0.000000 0.000000 0.000000 0.000000 0.000000 0.000000 10.000000 
Rope2_Seg03 0.000000 0.000000 0.000000 0.000000 0.000000 0.000000 10.000000 
Rope2_Seg04 0.000000 0.000000 0.000000 0.000000 0.000000 0.000000 10.000000 
Rope2_Seg05 0.000000 0.000000 0.000000 0.000000 0.000000 0.000000 10.000000 
Rope2_Seg06 0.000000 0.000000 0.000000 0.000000 0.000000 0.000000 10.000000 
Rope2_Seg07 0.000000 0.000000 0.000000 0.000000 0.000000 0.000000 10.000000 
Rope2_Seg09 0.000000 0.000000 0.000000 0.000000 0.000000 0.000000 10.000000 
R_mid_hand01 0.000000 0.000000 0.000000 0.000000 0.000000 0.000000 10.000000 
R_mid_hand02 0.000000 0.000000 0.000000 0.000000 0.000000 0.000000 10.000000 
R_mid_hand03 0.000000 0.000000 0.000000 0.000000 0.000000 0.000000 10.000000 
spine02 0.000000 0.000000 0.000000 0.000000 0.000000 0.000000 10.000000 
spine03 0.000000 0.000000 0.000000 0.000000 0.000000 0.000000 10.000000 
pelvis 0.000000 0.000000 0.000000 0.000000 0.000000 0.000000 10.000000 
null_rope03_connect 0.000000 0.000000 0.000000 0.000000 0.000000 0.000000 10.000000 
null_rope04_connect 0.000000 0.000000 0.000000 0.000000 0.000000 0.000000 10.000000 
Rope3_Seg01 0.000000 0.000000 0.000000 0.000000 0.000000 0.000000 10.000000 
Rope3_Seg02 0.000000 0.000000 0.000000 0.000000 0.000000 0.000000 10.000000 
Rope3_Seg03 0.000000 0.000000 0.000000 0.000000 0.000000 0.000000 10.000000 
Rope3_Seg04 0.000000 0.000000 0.000000 0.000000 0.000000 0.000000 10.000000 
Rope3_Seg05 0.000000 0.000000 0.000000 0.000000 0.000000 0.000000 10.000000 
Rope3_Seg06 0.000000 0.000000 0.000000 0.000000 0.000000 0.000000 10.000000 
Rope3_Seg07 0.000000 0.000000 0.000000 0.000000 0.000000 0.000000 10.000000 
Rope3_Seg08 0.000000 0.000000 0.000000 0.000000 0.000000 0.000000 10.000000 
Rope3_Seg09 0.000000 0.000000 0.000000 0.000000 0.000000 0.000000 10.000000 
R_rear_hand01 0.000000 0.000000 0.000000 0.000000 0.000000 0.000000 10.000000 
R_rear_hand02 0.000000 0.000000 0.000000 0.000000 0.000000 0.000000 10.000000 
R_rear_hand03 0.000000 0.000000 0.000000 0.000000 0.000000 0.000000 10.000000 
Rope4_Seg01 0.000000 0.000000 0.000000 0.000000 0.000000 0.000000 10.000000 
Rope4_Seg02 0.000000 0.000000 0.000000 0.000000 0.000000 0.000000 10.000000 
Rope4_Seg03 0.000000 0.000000 0.000000 0.000000 0.000000 0.000000 10.000000 
Rope4_Seg04 0.000000 0.000000 0.000000 0.000000 0.000000 0.000000 10.000000 
Rope4_Seg05 0.000000 0.000000 0.000000 0.000000 0.000000 0.000000 10.000000 
Rope4_Seg06 0.000000 0.000000 0.000000 0.000000 0.000000 0.000000 10.000000 
Rope4_Seg07 0.000000 0.000000 0.000000 0.000000 0.000000 0.000000 10.000000 
Rope4_Seg08 0.000000 0.000000 0.000000 0.000000 0.000000 0.000000 10.000000 
Rope4_Seg09 0.000000 0.000000 0.000000 0.000000 0.000000 0.000000 10.000000 
L_rear_hand01 0.000000 0.000000 0.000000 0.000000 0.000000 0.000000 10.000000 
L_rear_hand02 0.000000 0.000000 0.000000 0.000000 0.000000 0.000000 10.000000 
L_rear_hand03 0.000000 0.000000 0.000000 0.000000 0.000000 0.000000 10.000000 
#Beginning of Data. Separated by tabs
#Fr	Tx	Ty	Tz	Rx	Ry	Rz	SF
[MASTER]
51 2451.264648 2790.114502 1849.032959 0.001660 0.001660 0.001660 4148.778320
52 2450.083740 2790.114502 1847.363525 0.001660 0.001660 0.001660 4147.336914
[root]
51 102.184288 -51.398621 304.551392 -11.446674 3.237001 -113.141190 325.322906
52 102.329147 -51.398621 304.534821 -11.421815 3.239648 -113.147324 325.352936
[chest]
51 -84.512650 -34.090519 0.000000 21.612679 10.783457 157.791275 91.129311
52 -84.512650 -34.090519 0.000000 21.835772 10.766776 157.992325 91.129311
[L_mid_tent01]
51 27.298994 22.179182 -249.918701 2.813519 20.167139 86.803505 252.381683
52 27.298990 22.179184 -249.918701 2.813386 20.175423 86.763748 252.381683
[R_mid_tent01]
51 23.228794 24.509907 226.238495 172.655258 -18.021383 71.754417 228.744751
52 23.228794 24.509907 226.238495 172.693756 -17.982492 71.795013 228.744751
[spine01]
51 -0.361383 -0.195265 0.000000 0.001921 0.001348 19.894081 0.410763
52 -0.361383 -0.195265 0.000000 0.001922 0.001348 19.919186 0.410763
[Bip01_Neck]
51 165.484543 71.581718 0.000119 176.643677 -1.657967 43.431911 180.302734
52 165.484543 71.581718 0.000119 176.643677 -1.657967 43.431911 180.302734
[L_humerus]
51 -13.983130 -135.272980 -120.471481 13.645084 57.587914 129.272797 181.680161
52 -13.983130 -135.272980 -120.471481 13.579611 57.506737 129.102020 181.680161
[R_humerus]
51 -13.983309 -135.273102 125.287651 -164.025909 -75.730423 -101.362465 184.909012
52 -13.983309 -135.273102 125.287651 -163.908203 -75.851341 -101.480659 184.909012
[weapon_bone]
51 235.964890 -300.705902 0.000000 0.000000 -89.951546 -128.212341 382.234833
52 235.964890 -300.705902 0.000000 0.000000 -89.951546 -128.212341 382.234833
[Bip01_Head]
51 201.027725 166.803665 49.229073 78.136925 38.518360 -13.657246 265.817810
52 201.027725 166.803650 49.229069 78.136925 38.518360 -13.657246 265.817810
[eye_left_bone]
51 -24.626970 125.451866 -64.772606 0.000000 -90.000000 -99.840431 143.318359
52 -24.626970 125.451866 -64.772606 0.000000 -90.000000 -99.840431 143.318359
[eye_right_bone]
51 -24.626970 125.451866 64.327362 0.000000 -89.965736 80.156380 143.117676
52 -24.626970 125.451866 64.327362 0.000000 -89.965736 80.156380 143.117676
[L_forearm]
51 322.776093 0.000000 -0.000119 0.000000 -0.000782 -90.065300 322.776093
52 322.776093 0.000000 -0.000119 0.000007 -0.002347 -90.349182 322.776093
[L_front_hand]
51 241.149185 -0.042021 -3.300071 60.145348 -2.204067 -5.138963 241.171753
52 241.149185 -0.042021 -3.300071 60.145348 -2.204067 -5.138963 241.171753
[L_weapon_bone]
51 156.183838 0.000000 0.000000 0.000014 0.000007 0.000001 156.183838
52 156.183838 0.000000 0.000000 0.000014 0.000007 0.000001 156.183838
[L_front_hand01_01]
51 86.095154 20.947098 -0.655860 -0.366594 -0.477154 75.385574 88.609184
52 86.095154 20.947098 -0.655860 -0.366594 -0.477154 75.385574 88.609184
[L_front_hand02_01]
51 86.935165 -11.437475 24.513514 154.399796 -59.883835 -61.369587 91.046425
52 86.935165 -11.437475 24.513514 154.399811 -59.883842 -61.369587 91.046425
[L_front_hand03_01]
51 86.637497 -14.123976 -20.424902 -153.913879 58.118130 -62.702892 90.126129
52 86.637497 -14.123976 -20.424902 -153.913849 58.118122 -62.702866 90.126129
[L_front_hand01_02]
51 71.020905 -0.000179 0.000030 0.000334 -0.002323 -106.379684 71.020905
52 71.020905 -0.000179 0.000030 0.000334 -0.002323 -106.379684 71.020905
[L_front_hand02_02]
51 71.020927 -0.000119 0.000060 0.000334 -0.002323 -106.379684 71.020927
52 71.020927 -0.000119 0.000060 0.000334 -0.002323 -106.379684 71.020927
[L_front_hand03_02]
51 71.020905 -0.000060 0.000060 0.000334 -0.002323 -106.379684 71.020905
52 71.020905 -0.000060 0.000060 0.000334 -0.002323 -106.379684 71.020905
[R_forearm]
51 322.776428 -0.000060 0.000030 0.201159 0.068016 -109.687386 322.776428
52 322.776428 -0.000060 0.000030 0.201178 0.067958 -109.654442 322.776428
[R_front_hand]
51 238.847015 -0.006795 2.210259 -2.635298 -10.645461 -26.312506 238.857239
52 238.847015 -0.006795 2.210259 -2.635298 -10.645461 -26.312506 238.857239
[R_weapon_bone]
51 155.664093 0.002503 -0.000030 0.003487 0.001180 -90.988930 155.664078
52 155.664093 0.002503 -0.000030 0.003487 0.001180 -90.988930 155.664078
[R_front_hand01_01]
51 87.624611 14.231146 22.918642 -154.633499 -59.950634 61.746063 91.683487
52 87.624611 14.231146 22.918642 -154.633514 -59.950626 61.746063 91.683487
[R_front_hand02_01]
51 89.356956 14.367283 -19.491137 154.602661 58.302864 63.744389 92.579636
52 89.356956 14.367283 -19.491137 154.602661 58.302849 63.744381 92.579636
[R_front_hand03_01]
51 87.286232 -22.307278 -0.143439 0.162155 -0.423168 -75.767921 90.091743
52 87.286232 -22.307278 -0.143439 0.162155 -0.423168 -75.767921 90.091743
[R_front_hand01_02]
51 71.020905 0.000060 0.000119 0.002323 -0.000334 106.381714 71.020905
52 71.020905 0.000060 0.000119 0.002323 -0.000334 106.381714 71.020905
[R_front_hand02_02]
51 71.020844 -0.000030 -0.000119 0.002323 -0.000334 106.381714 71.020836
52 71.020844 -0.000030 -0.000119 0.002323 -0.000334 106.381714 71.020836
[R_front_hand03_02]
51 71.020905 0.000000 0.000030 0.002323 -0.000334 106.381714 71.020905
52 71.020905 0.000000 0.000030 0.002323 -0.000334 106.381714 71.020905
[null_rope01_connect]
51 328.732483 0.000000 -0.000238 -20.208750 -25.652390 30.990208 328.732483
52 328.732483 0.000000 -0.000238 -20.215630 -25.624727 31.027784 328.732483
[Rope1_Seg01]
51 -0.000019 -0.000172 0.000076 -22.153383 41.049915 151.035126 0.000189
52 -0.000019 -0.000174 0.000075 -21.908424 41.034710 151.441345 0.000191
[Rope1_Seg02]
51 139.999863 -0.000179 0.000000 -14.617399 30.695547 -21.998684 139.999863
52 139.999863 -0.000179 0.000000 -14.235556 30.452570 -21.884209 139.999863
[Rope1_Seg03]
51 139.999924 0.000060 -0.000060 -36.448872 25.093618 -10.210264 139.999924
52 139.999924 0.000060 -0.000060 -37.611198 25.777645 -10.892073 139.999924
[Rope1_Seg04]
51 139.999924 -0.000060 -0.000119 -29.771210 9.861778 2.434023 139.999924
52 139.999924 -0.000060 -0.000119 -31.471764 10.203592 2.624416 139.999924
[Rope1_Seg05]
51 139.999832 0.000119 -0.000060 -26.837370 7.400799 3.768503 139.999832
52 139.999832 0.000119 -0.000060 -26.593220 7.180010 4.109398 139.999832
[Rope1_Seg06]
51 139.999954 0.000119 -0.000060 -41.367977 12.324795 12.746208 139.999954
52 139.999954 0.000119 -0.000060 -39.214973 11.523764 12.943574 139.999954
[Rope1_Seg07]
51 139.999985 0.000060 0.000000 -18.101168 0.084129 22.886921 139.999985
52 139.999985 0.000060 0.000000 -17.789997 0.034958 22.747004 139.999985
[Rope1_Seg09]
51 121.602913 0.000119 -0.000089 -89.793175 -1.359789 0.847147 121.602913
52 121.602913 0.000119 -0.000089 -89.793175 -1.359789 0.847147 121.602913
[L_mid_hand01]
51 103.859421 1.038730 8.195221 130.544373 -67.584534 -38.866943 104.187431
52 103.859421 1.038730 8.195221 130.544373 -67.584534 -38.866943 104.187431
[L_mid_hand02]
51 105.572853 -4.139662 -10.864139 -168.923172 43.409309 -73.498886 106.211075
52 105.572853 -4.139662 -10.864139 -168.923172 43.409309 -73.498894 106.211075
[L_mid_hand03]
51 104.641464 17.579376 -3.913581 -6.012627 17.808174 74.893669 106.179977
52 104.641464 17.579376 -3.913581 -6.012626 17.808172 74.893661 106.179977
[null_rope02_connect]
51 328.732849 0.000179 -0.000119 -170.078461 0.535319 -41.339828 328.732849
52 328.732849 0.000179 -0.000119 -170.130569 0.502349 -41.309330 328.732849
[Rope2_Seg01]
51 0.000029 0.000229 0.000000 -30.947191 -75.717361 -164.192078 0.000231
52 0.000028 0.000230 0.000000 -30.520523 -75.736160 -164.650467 0.000232
[Rope2_Seg02]
51 139.999741 -0.000060 -0.000119 -1.867830 -4.126226 -34.485352 139.999756
52 139.999741 -0.000060 -0.000119 -1.761655 -4.238358 -35.256180 139.999756
[Rope2_Seg03]
51 140.000107 0.000030 0.000000 8.118610 -2.747095 -48.417168 140.000107
52 140.000107 0.000030 0.000000 8.108674 -2.798958 -47.628757 140.000107
[Rope2_Seg04]
51 139.999802 0.000000 -0.000060 6.379504 -3.295618 -18.591158 139.999802
52 139.999802 0.000000 -0.000060 6.080363 -3.223107 -17.878366 139.999802
[Rope2_Seg05]
51 139.999985 -0.000060 0.000119 1.500308 -1.715762 -3.899734 139.999985
52 139.999985 -0.000060 0.000119 1.484273 -1.674883 -3.913785 139.999985
[Rope2_Seg06]
51 139.999893 -0.000030 -0.000119 0.084514 -1.229926 0.114514 139.999893
52 139.999893 -0.000030 -0.000119 0.151217 -1.212386 -0.111221 139.999893
[Rope2_Seg07]
51 139.999893 0.000060 -0.000060 0.295346 -1.455994 -0.536267 139.999893
52 139.999893 0.000060 -0.000060 0.390911 -1.440875 -0.863892 139.999893
[Rope2_Seg09]
51 121.338966 0.000089 -0.000060 33.793236 -1.359788 -0.847141 121.338966
52 121.338966 0.000089 -0.000060 33.793236 -1.359788 -0.847141 121.338966
[R_mid_hand01]
51 104.680779 11.144459 -10.335981 -16.212063 45.237247 70.462852 105.778534
52 104.680779 11.144459 -10.335981 -16.212063 45.237247 70.462852 105.778534
[R_mid_hand02]
51 104.070427 2.443552 8.231699 49.067368 -67.749771 39.286453 104.424065
52 104.070427 2.443552 8.231699 49.067368 -67.749771 39.286453 104.424065
[R_mid_hand03]
51 106.028137 -11.221827 -5.996406 -177.101105 15.551026 -76.585571 106.788818
52 106.028137 -11.221827 -5.996406 -177.101105 15.551026 -76.585571 106.788818
[spine02]
51 129.756927 0.001550 0.000119 0.521466 -4.026066 -15.245763 129.756927
52 129.756927 0.001550 0.000119 0.518382 -4.026471 -15.197873 129.756927
[spine03]
51 78.614128 0.081482 -4.899017 1.991680 3.784502 17.931889 78.766670
52 78.614128 0.081482 -4.899018 1.989670 3.785729 17.898289 78.766670
[pelvis]
51 169.435242 0.051022 0.000000 -0.017347 -0.191045 1.388501 169.435257
52 169.435242 0.051022 0.000000 -0.016076 -0.191106 0.997095 169.435257
[null_rope03_connect]
51 -1.257226 -2.466202 137.391083 -7.086852 -8.022422 89.392235 137.418976
52 -1.257226 -2.466202 137.391083 -7.079359 -7.997624 89.753860 137.418976
[null_rope04_connect]
51 -1.259640 -2.480268 -137.844437 -7.086852 -8.022422 89.392235 137.872513
52 -1.259640 -2.480268 -137.844437 -7.079359 -7.997624 89.753860 137.872513
[Rope3_Seg01]
51 -0.000029 -0.000172 0.000000 41.212120 -57.103645 -97.913429 0.000174
52 -0.000029 -0.000174 0.000000 42.235218 -57.071651 -99.095009 0.000177
[Rope3_Seg02]
51 139.999924 -0.000119 0.000060 2.008825 0.128293 10.028303 139.999924
52 139.999924 -0.000119 0.000060 2.130641 0.144825 10.436181 139.999924
[Rope3_Seg03]
51 139.999924 -0.000119 0.000119 1.277077 4.248043 36.348145 139.999924
52 139.999924 -0.000119 0.000119 1.374310 4.430078 36.737045 139.999924
[Rope3_Seg04]
51 139.999924 0.000119 0.000000 -33.255882 -0.260521 54.148914 139.999924
52 139.999924 0.000119 0.000000 -31.537699 -0.280759 52.637760 139.999924
[Rope3_Seg05]
51 139.999924 -0.000238 0.000060 -2.885471 -5.508970 -3.525324 139.999924
52 139.999924 -0.000238 0.000060 -4.013415 -6.032169 -2.601848 139.999924
[Rope3_Seg06]
51 139.999893 -0.000119 -0.000060 -1.960214 -2.047222 0.717758 139.999893
52 139.999893 -0.000119 -0.000060 -2.151917 -2.145312 0.879733 139.999893
[Rope3_Seg07]
51 139.999771 0.000060 -0.000119 -0.883406 -1.208336 0.442933 139.999771
52 139.999771 0.000060 -0.000119 -0.988396 -1.269912 0.522067 139.999771
[Rope3_Seg08]
51 139.999985 -0.000060 0.000000 -0.249590 -0.695155 0.245517 139.999985
52 139.999985 -0.000060 0.000000 -0.310545 -0.731996 0.290499 139.999985
[Rope3_Seg09]
51 90.185997 -0.000179 -0.000060 89.793228 -1.359877 -0.847183 90.185997
52 90.185997 -0.000179 -0.000060 89.793228 -1.359877 -0.847183 90.185997
[R_rear_hand01]
51 103.366196 -6.073594 -10.757982 -177.714203 24.565960 -73.910950 104.101845
52 103.366196 -6.073594 -10.757982 -177.714203 24.565960 -73.910950 104.101845
[R_rear_hand02]
51 100.509819 12.039542 -7.992327 -12.874829 36.868488 72.167213 101.543350
52 100.509819 12.039542 -7.992327 -12.874829 36.868488 72.167213 101.543350
[R_rear_hand03]
51 101.539970 5.215704 5.435467 71.484581 -71.816628 21.513813 101.819031
52 101.539970 5.215704 5.435467 71.484581 -71.816628 21.513813 101.819031
[Rope4_Seg01]
51 0.000010 0.000038 -0.000114 -100.985947 66.571297 -94.221146 0.000121
52 0.000010 0.000038 -0.000114 -100.340744 66.434898 -93.532463 0.000121
[Rope4_Seg02]
51 139.999985 0.000060 0.000119 -1.456274 -8.641377 4.512461 139.999985
52 139.999985 0.000060 0.000119 -1.423484 -8.657126 4.555881 139.999985
[Rope4_Seg03]
51 139.999924 0.000000 -0.000238 -1.064355 -15.954545 8.111810 139.999924
52 139.999924 0.000000 -0.000238 -1.012213 -16.017168 8.224566 139.999924
[Rope4_Seg04]
51 139.999985 0.000000 0.000119 2.772187 -27.499735 18.800867 139.999985
52 139.999985 0.000000 0.000119 2.888718 -27.532873 19.153397 139.999985
[Rope4_Seg05]
51 139.999802 -0.000060 -0.000119 9.356289 -20.452152 13.371310 139.999802
52 139.999802 -0.000060 -0.000119 9.362304 -20.286739 13.315919 139.999802
[Rope4_Seg06]
51 139.999924 0.000000 0.000060 2.816461 -10.243203 -1.428013 139.999924
52 139.999924 0.000000 0.000060 2.739048 -10.287726 -1.581125 139.999924
[Rope4_Seg07]
51 139.999802 0.000000 0.000000 2.491320 -7.216270 -1.126982 139.999802
52 139.999802 0.000000 0.000000 2.584367 -7.200186 -1.033356 139.999802
[Rope4_Seg08]
51 139.999924 0.000000 0.000119 2.057286 -4.240979 0.960015 139.999924
52 139.999924 0.000000 0.000119 2.043936 -4.201280 0.961203 139.999924
[Rope4_Seg09]
51 90.185791 0.000060 0.000060 -135.617828 2.228885 0.850567 90.185791
52 90.185791 0.000060 0.000060 -135.617828 2.228885 0.850567 90.185791
[L_rear_hand01]
51 101.696655 -8.392275 -7.654577 -12.874829 -36.868488 107.832764 102.329041
52 101.696655 -8.392275 -7.654577 -12.874834 -36.868492 107.832779 102.329041
[L_rear_hand02]
51 102.726799 -1.568258 5.773216 71.484581 71.816628 158.486160 102.900848
52 102.726799 -1.568258 5.773216 71.484596 71.816643 158.486160 102.900848
[L_rear_hand03]
51 104.552910 9.721220 -10.420293 -177.714203 -24.565960 -106.089035 105.519653
52 104.552910 9.721220 -10.420293 -177.714203 -24.565960 -106.089035 105.519653
